<svg width="19" height="19" viewBox="0 0 19 19" fill="none" xmlns="http://www.w3.org/2000/svg">
<path d="M10.8344 14.6042C10.7254 14.6045 10.6178 14.5805 10.5194 14.5338C10.421 14.4871 10.3343 14.419 10.2656 14.3344L6.74376 9.95938C6.63651 9.82891 6.57788 9.66525 6.57788 9.49636C6.57788 9.32747 6.63651 9.16381 6.74376 9.03334L10.3896 4.65834C10.5134 4.50943 10.6912 4.41579 10.884 4.39801C11.0768 4.38024 11.2688 4.43978 11.4177 4.56355C11.5666 4.68732 11.6603 4.86517 11.678 5.05798C11.6958 5.25079 11.6363 5.44277 11.5125 5.59167L8.25313 9.50001L11.4031 13.4083C11.4923 13.5154 11.5489 13.6457 11.5663 13.7839C11.5838 13.9221 11.5612 14.0624 11.5014 14.1882C11.4416 14.314 11.3469 14.4201 11.2287 14.4938C11.1105 14.5675 10.9737 14.6058 10.8344 14.6042Z" fill="#2f2f2f"/>
</svg>
