<svg width="25" height="25" viewBox="0 0 25 25" fill="none" xmlns="http://www.w3.org/2000/svg">
<path d="M17.3905 3.332H13.915C13.287 3.334 13.3105 4.27 13.915 4.2645H17.3905V4.743H13.915C13.2905 4.7375 13.3135 5.673 13.915 5.6755H17.3905V6.1645H13.915C13.2905 6.1645 13.3135 7.0995 13.915 7.097H17.3905V7.563H13.915C13.3035 7.5675 13.3135 8.5035 13.915 8.5065H17.3905V8.9735H13.915C13.3035 8.9715 13.301 9.906 13.915 9.906H17.3905V10.372H13.915C13.3035 10.374 13.301 11.3095 13.915 11.305H17.3905V11.7825H13.915C13.3035 11.777 13.301 12.7115 13.915 12.715H17.3905V13.18H13.915C13.3035 13.1795 13.3135 14.116 13.915 14.113H17.3905V23.1925C17.3925 24.576 19.494 24.551 19.5 23.1925V1.945C19.494 1.313 18.975 0.514 18.121 0.5115H13.915C13.287 0.512 13.3105 1.448 13.915 1.444L17.3905 1.4555V1.9205H13.915C13.288 1.9175 13.3115 2.853 13.915 2.8535H17.3905V3.332ZM13.676 19.429C13.674 17.814 12 16.077 10 17.202V11.025L8.7065 0.8375C8.6795 0.568 8.451 0.5045 8.2975 0.5C8.139 0.5045 7.8215 0.568 7.787 0.8375L6.5 11.025V17.202C4.5 16.077 2.88 17.825 2.8795 19.4165C2.88 20.8325 3.97 21.9955 5.445 21.992C6.931 21.9955 8 20.692 8 19.4165V13H8.5V19.4165C8.5 20.8445 9.606 21.9015 10.835 21.9685C10.8145 22.7515 11.07 23.8685 11.551 24.3115C12.115 24.8315 12.7865 24.1665 12.511 23.625C12.245 23.121 11.984 22.8225 12.196 21.722C13.082 21.312 13.674 20.449 13.676 19.429ZM5.502 20.6995C5.16484 20.6995 4.8415 20.5656 4.60309 20.3272C4.36469 20.0888 4.23075 19.7654 4.23075 19.4283C4.23075 19.0911 4.36469 18.7677 4.60309 18.5293C4.8415 18.2909 5.16484 18.157 5.502 18.157C6.195 18.161 6.7595 18.7295 6.7645 19.429C6.76308 19.7641 6.62986 20.0853 6.39363 20.323C6.1574 20.5607 5.83712 20.696 5.502 20.6995ZM9.7875 19.429C9.78867 19.0936 9.92182 18.7721 10.1582 18.534C10.3945 18.296 10.7151 18.1605 11.0505 18.157C11.386 18.16 11.7068 18.2953 11.9432 18.5335C12.1796 18.7716 12.3125 19.0934 12.313 19.429C12.3125 19.7644 12.1796 20.0861 11.9431 20.324C11.7067 20.5619 11.3859 20.6969 11.0505 20.6995C10.7152 20.6965 10.3945 20.5614 10.1581 20.3236C9.9217 20.0858 9.78854 19.7643 9.7875 19.429Z" fill="#FF6347"/>
</svg>
