<svg width="25" height="25" viewBox="0 0 25 25" fill="none" xmlns="http://www.w3.org/2000/svg">
<path d="M21.0938 8.59375H15.625V3.125C15.625 2.5034 15.3781 1.90726 14.9385 1.46772C14.499 1.02818 13.9029 0.78125 13.2812 0.78125H3.90625C3.28465 0.78125 2.68851 1.02818 2.24897 1.46772C1.80943 1.90726 1.5625 2.5034 1.5625 3.125V23.4375C1.5625 23.6447 1.64481 23.8434 1.79132 23.9899C1.93784 24.1364 2.13655 24.2188 2.34375 24.2188H7.42188C7.52548 24.2188 7.62483 24.1776 7.69809 24.1043C7.77135 24.0311 7.8125 23.9317 7.8125 23.8281V20.3345C7.8125 19.9141 8.13574 19.5532 8.55615 19.5322C8.66178 19.5271 8.76735 19.5435 8.86645 19.5805C8.96556 19.6174 9.05613 19.674 9.13269 19.747C9.20926 19.8199 9.27021 19.9077 9.31186 20.0049C9.35351 20.1021 9.37499 20.2067 9.375 20.3125V23.8281C9.375 23.9317 9.41615 24.0311 9.48941 24.1043C9.56267 24.1776 9.66202 24.2188 9.76562 24.2188H22.6562C22.8635 24.2188 23.0622 24.1364 23.2087 23.9899C23.3552 23.8434 23.4375 23.6447 23.4375 23.4375V10.9375C23.4375 10.3159 23.1906 9.71976 22.751 9.28022C22.3115 8.84068 21.7154 8.59375 21.0938 8.59375ZM4.78906 21.0874C4.62726 21.1086 4.46289 21.0785 4.31903 21.0015C4.17517 20.9245 4.05903 20.8044 3.98692 20.658C3.91481 20.5116 3.89035 20.3463 3.91696 20.1853C3.94358 20.0243 4.01994 19.8757 4.13532 19.7603C4.25071 19.6449 4.39933 19.5686 4.56032 19.542C4.72132 19.5153 4.88661 19.5398 5.03299 19.6119C5.17937 19.684 5.2995 19.8002 5.37651 19.944C5.45353 20.0879 5.48356 20.2523 5.4624 20.4141C5.44007 20.5848 5.36195 20.7434 5.24018 20.8652C5.11841 20.9869 4.95982 21.0651 4.78906 21.0874ZM4.78906 17.1812C4.62726 17.2023 4.46289 17.1723 4.31903 17.0953C4.17517 17.0182 4.05903 16.8981 3.98692 16.7517C3.91481 16.6054 3.89035 16.4401 3.91696 16.2791C3.94358 16.1181 4.01994 15.9695 4.13532 15.8541C4.25071 15.7387 4.39933 15.6623 4.56032 15.6357C4.72132 15.6091 4.88661 15.6336 5.03299 15.7057C5.17937 15.7778 5.2995 15.8939 5.37651 16.0378C5.45353 16.1816 5.48356 16.346 5.4624 16.5078C5.44007 16.6786 5.36195 16.8372 5.24018 16.9589C5.11841 17.0807 4.95982 17.1588 4.78906 17.1812ZM4.78906 13.2749C4.62726 13.2961 4.46289 13.266 4.31903 13.189C4.17517 13.112 4.05903 12.9919 3.98692 12.8455C3.91481 12.6991 3.89035 12.5338 3.91696 12.3728C3.94358 12.2118 4.01994 12.0632 4.13532 11.9478C4.25071 11.8324 4.39933 11.7561 4.56032 11.7295C4.72132 11.7028 4.88661 11.7273 5.03299 11.7994C5.17937 11.8715 5.2995 11.9877 5.37651 12.1315C5.45353 12.2754 5.48356 12.4398 5.4624 12.6016C5.44007 12.7723 5.36195 12.9309 5.24018 13.0527C5.11841 13.1744 4.95982 13.2526 4.78906 13.2749ZM4.78906 9.36865C4.62726 9.38981 4.46289 9.35978 4.31903 9.28276C4.17517 9.20575 4.05903 9.08562 3.98692 8.93924C3.91481 8.79286 3.89035 8.62757 3.91696 8.46657C3.94358 8.30558 4.01994 8.15696 4.13532 8.04157C4.25071 7.92619 4.39933 7.84983 4.56032 7.82321C4.72132 7.7966 4.88661 7.82106 5.03299 7.89317C5.17937 7.96528 5.2995 8.08142 5.37651 8.22528C5.45353 8.36914 5.48356 8.53351 5.4624 8.69531C5.44007 8.86607 5.36195 9.02466 5.24018 9.14643C5.11841 9.2682 4.95982 9.34632 4.78906 9.36865ZM4.78906 5.4624C4.62726 5.48356 4.46289 5.45353 4.31903 5.37651C4.17517 5.2995 4.05903 5.17937 3.98692 5.03299C3.91481 4.88661 3.89035 4.72132 3.91696 4.56032C3.94358 4.39933 4.01994 4.25071 4.13532 4.13532C4.25071 4.01994 4.39933 3.94358 4.56032 3.91696C4.72132 3.89035 4.88661 3.91481 5.03299 3.98692C5.17937 4.05903 5.2995 4.17517 5.37651 4.31903C5.45353 4.46289 5.48356 4.62726 5.4624 4.78906C5.44007 4.95982 5.36195 5.11841 5.24018 5.24018C5.11841 5.36195 4.95982 5.44007 4.78906 5.4624ZM8.69531 17.1812C8.53351 17.2023 8.36914 17.1723 8.22528 17.0953C8.08142 17.0182 7.96528 16.8981 7.89317 16.7517C7.82106 16.6054 7.7966 16.4401 7.82321 16.2791C7.84983 16.1181 7.92619 15.9695 8.04157 15.8541C8.15696 15.7387 8.30558 15.6623 8.46657 15.6357C8.62757 15.6091 8.79286 15.6336 8.93924 15.7057C9.08562 15.7778 9.20575 15.8939 9.28276 16.0378C9.35978 16.1816 9.38981 16.346 9.36865 16.5078C9.34632 16.6786 9.2682 16.8372 9.14643 16.9589C9.02466 17.0807 8.86607 17.1588 8.69531 17.1812ZM8.69531 13.2749C8.53351 13.2961 8.36914 13.266 8.22528 13.189C8.08142 13.112 7.96528 12.9919 7.89317 12.8455C7.82106 12.6991 7.7966 12.5338 7.82321 12.3728C7.84983 12.2118 7.92619 12.0632 8.04157 11.9478C8.15696 11.8324 8.30558 11.7561 8.46657 11.7295C8.62757 11.7028 8.79286 11.7273 8.93924 11.7994C9.08562 11.8715 9.20575 11.9877 9.28276 12.1315C9.35978 12.2754 9.38981 12.4398 9.36865 12.6016C9.34632 12.7723 9.2682 12.9309 9.14643 13.0527C9.02466 13.1744 8.86607 13.2526 8.69531 13.2749ZM8.69531 9.36865C8.53351 9.38981 8.36914 9.35978 8.22528 9.28276C8.08142 9.20575 7.96528 9.08562 7.89317 8.93924C7.82106 8.79286 7.7966 8.62757 7.82321 8.46657C7.84983 8.30558 7.92619 8.15696 8.04157 8.04157C8.15696 7.92619 8.30558 7.84983 8.46657 7.82321C8.62757 7.7966 8.79286 7.82106 8.93924 7.89317C9.08562 7.96528 9.20575 8.08142 9.28276 8.22528C9.35978 8.36914 9.38981 8.53351 9.36865 8.69531C9.34632 8.86607 9.2682 9.02466 9.14643 9.14643C9.02466 9.2682 8.86607 9.34632 8.69531 9.36865ZM8.69531 5.4624C8.53351 5.48356 8.36914 5.45353 8.22528 5.37651C8.08142 5.2995 7.96528 5.17937 7.89317 5.03299C7.82106 4.88661 7.7966 4.72132 7.82321 4.56032C7.84983 4.39933 7.92619 4.25071 8.04157 4.13532C8.15696 4.01994 8.30558 3.94358 8.46657 3.91696C8.62757 3.89035 8.79286 3.91481 8.93924 3.98692C9.08562 4.05903 9.20575 4.17517 9.28276 4.31903C9.35978 4.46289 9.38981 4.62726 9.36865 4.78906C9.34632 4.95982 9.2682 5.11841 9.14643 5.24018C9.02466 5.36195 8.86607 5.44007 8.69531 5.4624ZM12.6016 21.0874C12.4398 21.1086 12.2754 21.0785 12.1315 21.0015C11.9877 20.9245 11.8715 20.8044 11.7994 20.658C11.7273 20.5116 11.7028 20.3463 11.7295 20.1853C11.7561 20.0243 11.8324 19.8757 11.9478 19.7603C12.0632 19.6449 12.2118 19.5686 12.3728 19.542C12.5338 19.5153 12.6991 19.5398 12.8455 19.6119C12.9919 19.684 13.112 19.8002 13.189 19.944C13.266 20.0879 13.2961 20.2523 13.2749 20.4141C13.2526 20.5848 13.1744 20.7434 13.0527 20.8652C12.9309 20.9869 12.7723 21.0651 12.6016 21.0874ZM12.6016 17.1812C12.4398 17.2023 12.2754 17.1723 12.1315 17.0953C11.9877 17.0182 11.8715 16.8981 11.7994 16.7517C11.7273 16.6054 11.7028 16.4401 11.7295 16.2791C11.7561 16.1181 11.8324 15.9695 11.9478 15.8541C12.0632 15.7387 12.2118 15.6623 12.3728 15.6357C12.5338 15.6091 12.6991 15.6336 12.8455 15.7057C12.9919 15.7778 13.112 15.8939 13.189 16.0378C13.266 16.1816 13.2961 16.346 13.2749 16.5078C13.2526 16.6786 13.1744 16.8372 13.0527 16.9589C12.9309 17.0807 12.7723 17.1588 12.6016 17.1812ZM12.6016 13.2749C12.4398 13.2961 12.2754 13.266 12.1315 13.189C11.9877 13.112 11.8715 12.9919 11.7994 12.8455C11.7273 12.6991 11.7028 12.5338 11.7295 12.3728C11.7561 12.2118 11.8324 12.0632 11.9478 11.9478C12.0632 11.8324 12.2118 11.7561 12.3728 11.7295C12.5338 11.7028 12.6991 11.7273 12.8455 11.7994C12.9919 11.8715 13.112 11.9877 13.189 12.1315C13.266 12.2754 13.2961 12.4398 13.2749 12.6016C13.2526 12.7723 13.1744 12.9309 13.0527 13.0527C12.9309 13.1744 12.7723 13.2526 12.6016 13.2749ZM12.6016 9.36865C12.4398 9.38981 12.2754 9.35978 12.1315 9.28276C11.9877 9.20575 11.8715 9.08562 11.7994 8.93924C11.7273 8.79286 11.7028 8.62757 11.7295 8.46657C11.7561 8.30558 11.8324 8.15696 11.9478 8.04157C12.0632 7.92619 12.2118 7.84983 12.3728 7.82321C12.5338 7.7966 12.6991 7.82106 12.8455 7.89317C12.9919 7.96528 13.112 8.08142 13.189 8.22528C13.266 8.36914 13.2961 8.53351 13.2749 8.69531C13.2526 8.86607 13.1744 9.02466 13.0527 9.14643C12.9309 9.2682 12.7723 9.34632 12.6016 9.36865ZM12.6016 5.4624C12.4398 5.48356 12.2754 5.45353 12.1315 5.37651C11.9877 5.2995 11.8715 5.17937 11.7994 5.03299C11.7273 4.88661 11.7028 4.72132 11.7295 4.56032C11.7561 4.39933 11.8324 4.25071 11.9478 4.13532C12.0632 4.01994 12.2118 3.94358 12.3728 3.91696C12.5338 3.89035 12.6991 3.91481 12.8455 3.98692C12.9919 4.05903 13.112 4.17517 13.189 4.31903C13.266 4.46289 13.2961 4.62726 13.2749 4.78906C13.2526 4.95982 13.1744 5.11841 13.0527 5.24018C12.9309 5.36195 12.7723 5.44007 12.6016 5.4624ZM21.6797 22.6562H15.625V10.1562H21.0938C21.301 10.1562 21.4997 10.2386 21.6462 10.3851C21.7927 10.5316 21.875 10.7303 21.875 10.9375V22.4609C21.875 22.5127 21.8544 22.5624 21.8178 22.599C21.7812 22.6357 21.7315 22.6562 21.6797 22.6562Z" fill="#FF6347"/>
<path d="M19.5312 19.5312C19.3767 19.5312 19.2257 19.5771 19.0972 19.6629C18.9687 19.7488 18.8686 19.8708 18.8095 20.0135C18.7503 20.1563 18.7349 20.3134 18.765 20.4649C18.7952 20.6165 18.8696 20.7557 18.9788 20.8649C19.0881 20.9742 19.2273 21.0486 19.3788 21.0787C19.5304 21.1089 19.6875 21.0934 19.8302 21.0343C19.973 20.9751 20.095 20.875 20.1808 20.7465C20.2667 20.6181 20.3125 20.467 20.3125 20.3125C20.3125 20.1053 20.2302 19.9066 20.0837 19.7601C19.9372 19.6136 19.7385 19.5312 19.5312 19.5312ZM19.5312 15.625C19.3767 15.625 19.2257 15.6708 19.0972 15.7567C18.9687 15.8425 18.8686 15.9645 18.8095 16.1073C18.7503 16.25 18.7349 16.4071 18.765 16.5587C18.7952 16.7102 18.8696 16.8494 18.9788 16.9587C19.0881 17.0679 19.2273 17.1423 19.3788 17.1725C19.5304 17.2026 19.6875 17.1872 19.8302 17.128C19.973 17.0689 20.095 16.9688 20.1808 16.8403C20.2667 16.7118 20.3125 16.5608 20.3125 16.4062C20.3125 16.199 20.2302 16.0003 20.0837 15.8538C19.9372 15.7073 19.7385 15.625 19.5312 15.625ZM19.5312 11.7188C19.3767 11.7188 19.2257 11.7646 19.0972 11.8504C18.9687 11.9363 18.8686 12.0583 18.8095 12.201C18.7503 12.3438 18.7349 12.5009 18.765 12.6524C18.7952 12.804 18.8696 12.9432 18.9788 13.0524C19.0881 13.1617 19.2273 13.2361 19.3788 13.2662C19.5304 13.2964 19.6875 13.2809 19.8302 13.2218C19.973 13.1626 20.095 13.0625 20.1808 12.934C20.2667 12.8056 20.3125 12.6545 20.3125 12.5C20.3125 12.2928 20.2302 12.0941 20.0837 11.9476C19.9372 11.8011 19.7385 11.7188 19.5312 11.7188ZM16.4063 19.5312C16.2517 19.5312 16.1007 19.5771 15.9722 19.6629C15.8437 19.7488 15.7436 19.8708 15.6845 20.0135C15.6253 20.1563 15.6099 20.3134 15.64 20.4649C15.6702 20.6165 15.7446 20.7557 15.8538 20.8649C15.9631 20.9742 16.1023 21.0486 16.2538 21.0787C16.4054 21.1089 16.5625 21.0934 16.7052 21.0343C16.848 20.9751 16.97 20.875 17.0558 20.7465C17.1417 20.6181 17.1875 20.467 17.1875 20.3125C17.1875 20.1053 17.1052 19.9066 16.9587 19.7601C16.8122 19.6136 16.6135 19.5312 16.4063 19.5312ZM16.4063 15.625C16.2517 15.625 16.1007 15.6708 15.9722 15.7567C15.8437 15.8425 15.7436 15.9645 15.6845 16.1073C15.6253 16.25 15.6099 16.4071 15.64 16.5587C15.6702 16.7102 15.7446 16.8494 15.8538 16.9587C15.9631 17.0679 16.1023 17.1423 16.2538 17.1725C16.4054 17.2026 16.5625 17.1872 16.7052 17.128C16.848 17.0689 16.97 16.9688 17.0558 16.8403C17.1417 16.7118 17.1875 16.5608 17.1875 16.4062C17.1875 16.199 17.1052 16.0003 16.9587 15.8538C16.8122 15.7073 16.6135 15.625 16.4063 15.625ZM16.4063 11.7188C16.2517 11.7188 16.1007 11.7646 15.9722 11.8504C15.8437 11.9363 15.7436 12.0583 15.6845 12.201C15.6253 12.3438 15.6099 12.5009 15.64 12.6524C15.6702 12.804 15.7446 12.9432 15.8538 13.0524C15.9631 13.1617 16.1023 13.2361 16.2538 13.2662C16.4054 13.2964 16.5625 13.2809 16.7052 13.2218C16.848 13.1626 16.97 13.0625 17.0558 12.934C17.1417 12.8056 17.1875 12.6545 17.1875 12.5C17.1875 12.2928 17.1052 12.0941 16.9587 11.9476C16.8122 11.8011 16.6135 11.7188 16.4063 11.7188Z" fill="#FF6347"/>
</svg>
