<svg width="24" height="24" viewBox="0 0 24 24" fill="none" xmlns="http://www.w3.org/2000/svg">
<path d="M7.50001 9.74752C7.50001 9.46021 7.61415 9.18466 7.81731 8.98149C8.02048 8.77833 8.29603 8.66419 8.58334 8.66419H15.0833C15.3707 8.66419 15.6462 8.77833 15.8494 8.98149C16.0525 9.18466 16.1667 9.46021 16.1667 9.74752C16.1667 10.0348 16.0525 10.3104 15.8494 10.5136C15.6462 10.7167 15.3707 10.8309 15.0833 10.8309H8.58334C8.29603 10.8309 8.02048 10.7167 7.81731 10.5136C7.61415 10.3104 7.50001 10.0348 7.50001 9.74752ZM8.58334 12.9975C8.29603 12.9975 8.02048 13.1117 7.81731 13.3148C7.61415 13.518 7.50001 13.7935 7.50001 14.0809C7.50001 14.3682 7.61415 14.6437 7.81731 14.8469C8.02048 15.0501 8.29603 15.1642 8.58334 15.1642H12.9167C13.204 15.1642 13.4795 15.0501 13.6827 14.8469C13.8859 14.6437 14 14.3682 14 14.0809C14 13.7935 13.8859 13.518 13.6827 13.3148C13.4795 13.1117 13.204 12.9975 12.9167 12.9975H8.58334ZM1.00001 10.8309C1.00056 8.45576 1.78162 6.14665 3.22299 4.25892C4.66437 2.37118 6.68617 1.00944 8.97725 0.383273C11.2683 -0.242898 13.7017 -0.0987962 15.9028 0.7934C18.104 1.6856 19.951 3.27644 21.1595 5.3211C22.368 7.36576 22.871 9.75091 22.5913 12.1095C22.3115 14.468 21.2643 16.6693 19.611 18.3745C17.9577 20.0797 15.7898 21.1942 13.441 21.5467C11.0922 21.8992 8.69267 21.47 6.61168 20.3252L2.39968 21.6079C2.21181 21.6651 2.01192 21.6702 1.82138 21.6226C1.63085 21.5749 1.45684 21.4764 1.31797 21.3376C1.17909 21.1987 1.08059 21.0247 1.03298 20.8342C0.985369 20.6436 0.99045 20.4437 1.04768 20.2559L2.33035 16.0374C1.45491 14.4418 0.997277 12.6508 1.00001 10.8309ZM11.8333 2.16419C10.2949 2.16406 8.78411 2.57346 7.4562 3.35035C6.12829 4.12723 5.03112 5.24359 4.27737 6.58476C3.52362 7.92593 3.14047 9.44357 3.16727 10.9818C3.19406 12.52 3.62984 14.0234 4.42985 15.3375C4.50926 15.4681 4.56016 15.6139 4.5792 15.7655C4.59825 15.9171 4.585 16.0711 4.54035 16.2172L3.71051 18.945L6.43401 18.1152C6.58061 18.0705 6.73501 18.0575 6.88702 18.0769C7.03903 18.0963 7.18519 18.1478 7.31585 18.2279C8.45807 18.9252 9.74627 19.3486 11.0795 19.4648C12.4127 19.581 13.7547 19.3869 15.0004 18.8976C16.246 18.4083 17.3614 17.6373 18.2592 16.6448C19.157 15.6523 19.8127 14.4654 20.175 13.1771C20.5373 11.8888 20.5963 10.5341 20.3475 9.21918C20.0986 7.90424 19.5486 6.66481 18.7406 5.59801C17.9325 4.53121 16.8884 3.66603 15.69 3.07028C14.4917 2.47453 13.1716 2.1644 11.8333 2.16419Z" fill="#FF6347"/>
</svg>
