<svg width="23" height="24" viewBox="0 0 23 24" fill="none" xmlns="http://www.w3.org/2000/svg">
<path d="M5.27372 4.627L5.27084 6.75V17.254C5.27084 18.116 5.59899 18.9426 6.18308 19.5521C6.76718 20.1616 7.55939 20.504 8.38543 20.504H16.6424C16.4936 20.9427 16.2182 21.3225 15.854 21.5911C15.4898 21.8598 15.0548 22.004 14.6088 22.004H8.38543C7.17814 22.004 6.0203 21.5036 5.16662 20.6128C4.31294 19.722 3.83334 18.5138 3.83334 17.254V6.75C3.83334 5.77 4.43422 4.935 5.27372 4.627ZM12.581 2C13.1531 2 13.7023 2.237 14.1067 2.66L18.5323 7.28C18.9367 7.702 19.1638 8.275 19.1638 8.871V17.254C19.1638 17.8507 18.9366 18.423 18.5323 18.845C18.1279 19.2669 17.5794 19.504 17.0076 19.504H8.38734C7.81547 19.504 7.26702 19.2669 6.86264 18.845C6.45827 18.423 6.23109 17.8507 6.23109 17.254V4.25C6.23109 3.65326 6.45827 3.08097 6.86264 2.65901C7.26702 2.23705 7.81547 2 8.38734 2H12.581ZM12.4583 3.5H8.38734C8.19672 3.5 8.0139 3.57902 7.87911 3.71967C7.74432 3.86032 7.66859 4.05109 7.66859 4.25V17.254C7.66859 17.668 7.99059 18.004 8.38734 18.004H17.0076C17.1982 18.004 17.381 17.925 17.5158 17.7843C17.6506 17.6437 17.7263 17.4529 17.7263 17.254V9.003H14.6146C14.0684 9.00309 13.5425 8.78686 13.1431 8.398C12.7438 8.00913 12.5008 7.47661 12.4631 6.908L12.4583 6.754V3.5ZM13.8958 4.561L13.8968 6.754C13.8968 7.134 14.1671 7.447 14.5178 7.497L14.6156 7.504L16.7143 7.503L13.8968 4.561H13.8958Z" fill="#2F2F2F"/>
</svg>
