<svg width="22" height="22" viewBox="0 0 22 22" fill="none" xmlns="http://www.w3.org/2000/svg">
<g clip-path="url(#clip0_232_13)">
<path d="M21.8109 5.27656C21.6862 4.75706 21.0268 4.58347 20.6491 4.96125L17.3598 8.25094H13.7891V4.68024L17.0784 1.39055C17.4561 1.01285 17.2825 0.353283 16.7631 0.228674C15.7452 -0.0159474 14.6431 -0.0339083 13.501 0.23933C10.8605 0.870971 8.80017 3.11394 8.37908 5.79519C8.15547 6.90937 8.26289 8.02226 8.59805 9.02773L0.945312 16.6805C-0.26297 17.8887 -0.26297 19.8468 0.945312 21.0547C1.51078 21.6605 2.30141 22 3.05508 22C3.80875 22 4.63805 21.6979 5.24262 21.0938L12.8953 13.441C13.9034 13.7735 15.0141 13.881 16.1683 13.699C18.85 13.2762 21.0925 11.2154 21.7241 8.57716C22.073 7.39492 22.0559 6.29492 21.8109 5.27656V5.27656ZM3.4375 19.5937C2.86816 19.5937 2.40625 19.1318 2.40625 18.5625C2.40625 17.9927 2.86816 17.5312 3.4375 17.5312C4.00684 17.5312 4.46875 17.9927 4.46875 18.5625C4.46875 19.134 4.00684 19.5937 3.4375 19.5937Z" fill="#FF6347"/>
</g>
<defs>
<clipPath id="clip0_232_13">
<rect width="22" height="22" fill="white"/>
</clipPath>
</defs>
</svg>
