<svg width="16" height="16" viewBox="0 0 16 16" fill="none" xmlns="http://www.w3.org/2000/svg">
<g clip-path="url(#clip0_247_4)">
<path fill-rule="evenodd" clip-rule="evenodd" d="M2.5 1.75C2.5 1.6837 2.52634 1.62011 2.57322 1.57322C2.62011 1.52634 2.6837 1.5 2.75 1.5H11.25C11.3163 1.5 11.3799 1.52634 11.4268 1.57322C11.4737 1.62011 11.5 1.6837 11.5 1.75V9.486C11.5 9.68491 11.579 9.87568 11.7197 10.0163C11.8603 10.157 12.0511 10.236 12.25 10.236C12.4489 10.236 12.6397 10.157 12.7803 10.0163C12.921 9.87568 13 9.68491 13 9.486V1.75C13 1.28587 12.8156 0.840752 12.4874 0.512563C12.1592 0.184374 11.7141 0 11.25 0H2.75C2.28587 0 1.84075 0.184374 1.51256 0.512563C1.18437 0.840752 1 1.28587 1 1.75V13.25C1 14.216 1.784 15 2.75 15H5.92C6.11891 15 6.30968 14.921 6.45033 14.7803C6.59098 14.6397 6.67 14.4489 6.67 14.25C6.67 14.0511 6.59098 13.8603 6.45033 13.7197C6.30968 13.579 6.11891 13.5 5.92 13.5H2.75C2.6837 13.5 2.62011 13.4737 2.57322 13.4268C2.52634 13.3799 2.5 13.3163 2.5 13.25V1.75ZM4.75 4C4.55109 4 4.36032 4.07902 4.21967 4.21967C4.07902 4.36032 4 4.55109 4 4.75C4 4.94891 4.07902 5.13968 4.21967 5.28033C4.36032 5.42098 4.55109 5.5 4.75 5.5H9.25C9.44891 5.5 9.63968 5.42098 9.78033 5.28033C9.92098 5.13968 10 4.94891 10 4.75C10 4.55109 9.92098 4.36032 9.78033 4.21967C9.63968 4.07902 9.44891 4 9.25 4H4.75ZM4 7.75C4 7.55109 4.07902 7.36032 4.21967 7.21967C4.36032 7.07902 4.55109 7 4.75 7H6.75C6.94891 7 7.13968 7.07902 7.28033 7.21967C7.42098 7.36032 7.5 7.55109 7.5 7.75C7.5 7.94891 7.42098 8.13968 7.28033 8.28033C7.13968 8.42098 6.94891 8.5 6.75 8.5H4.75C4.55109 8.5 4.36032 8.42098 4.21967 8.28033C4.07902 8.13968 4 7.94891 4 7.75V7.75ZM15.774 11.287C15.8445 11.2182 15.9008 11.1362 15.9396 11.0456C15.9784 10.955 15.999 10.8577 16.0002 10.7592C16.0014 10.6607 15.9832 10.5629 15.9466 10.4714C15.9101 10.3799 15.8558 10.2965 15.787 10.226C15.7182 10.1555 15.6362 10.0992 15.5456 10.0604C15.455 10.0216 15.3577 10.001 15.2592 9.99976C15.1607 9.99855 15.0629 10.0168 14.9714 10.0534C14.8799 10.0899 14.7965 10.1442 14.726 10.213L10.7 14.145L9.281 12.72C9.13908 12.5872 8.95116 12.5148 8.75685 12.5178C8.56254 12.5209 8.37699 12.5992 8.23932 12.7364C8.10164 12.8735 8.02258 13.0588 8.01879 13.2531C8.015 13.4474 8.08678 13.6356 8.219 13.778L10.162 15.728C10.3014 15.868 10.4903 15.9474 10.6879 15.9489C10.8854 15.9504 11.0755 15.8739 11.217 15.736L15.774 11.286V11.287Z" fill="#FF6347"/>
</g>
<defs>
<clipPath id="clip0_247_4">
<rect width="16" height="16" fill="white"/>
</clipPath>
</defs>
</svg>
