<svg width="20" height="20" viewBox="0 0 20 20" fill="none" xmlns="http://www.w3.org/2000/svg">
<path d="M10 11.25C10.6904 11.25 11.25 10.6904 11.25 10C11.25 9.30964 10.6904 8.75 10 8.75C9.30964 8.75 8.75 9.30964 8.75 10C8.75 10.6904 9.30964 11.25 10 11.25Z" fill="#2F2F2F" fill-opacity="0.5"/>
<path d="M18.225 9.58333C17.6916 8.65833 14.7583 4.01666 9.77497 4.16666C5.16664 4.28333 2.49998 8.33333 1.77498 9.58333C1.70184 9.71001 1.66333 9.85372 1.66333 10C1.66333 10.1463 1.70184 10.29 1.77498 10.4167C2.29998 11.325 5.10831 15.8333 10.0166 15.8333H10.225C14.8333 15.7167 17.5083 11.6667 18.225 10.4167C18.2981 10.29 18.3366 10.1463 18.3366 10C18.3366 9.85372 18.2981 9.71001 18.225 9.58333ZM9.99998 12.9167C9.42311 12.9167 8.85921 12.7456 8.37956 12.4251C7.89992 12.1046 7.52608 11.6491 7.30533 11.1162C7.08457 10.5832 7.02681 9.99676 7.13935 9.43098C7.25189 8.86521 7.52968 8.34551 7.93758 7.9376C8.34548 7.5297 8.86518 7.25191 9.43096 7.13937C9.99674 7.02683 10.5832 7.08459 11.1161 7.30535C11.6491 7.5261 12.1046 7.89994 12.4251 8.37958C12.7456 8.85923 12.9166 9.42314 12.9166 10C12.9166 10.7735 12.6094 11.5154 12.0624 12.0624C11.5154 12.6094 10.7735 12.9167 9.99998 12.9167Z" fill="#2F2F2F" fill-opacity="0.5"/>
</svg>
