<svg width="25" height="25" viewBox="0 0 25 25" fill="none" xmlns="http://www.w3.org/2000/svg">
<path d="M12.5 9.375C10.8062 9.375 9.375 10.8062 9.375 12.5C9.375 14.1937 10.8062 15.625 12.5 15.625C14.1937 15.625 15.625 14.1937 15.625 12.5C15.625 10.8062 14.1937 9.375 12.5 9.375Z" fill="#FF6347"/>
<path d="M20.8333 5.20833H18.1396L15.3198 2.38854C15.2232 2.29162 15.1084 2.21476 14.982 2.16238C14.8557 2.11 14.7202 2.08313 14.5833 2.08333H10.4167C10.2799 2.08313 10.1443 2.11 10.018 2.16238C9.89156 2.21476 9.77678 2.29162 9.68021 2.38854L6.86042 5.20833H4.16667C3.01771 5.20833 2.08333 6.1427 2.08333 7.29166V18.75C2.08333 19.8989 3.01771 20.8333 4.16667 20.8333H20.8333C21.9823 20.8333 22.9167 19.8989 22.9167 18.75V7.29166C22.9167 6.1427 21.9823 5.20833 20.8333 5.20833ZM12.5 17.7083C9.67708 17.7083 7.29167 15.3229 7.29167 12.5C7.29167 9.67708 9.67708 7.29166 12.5 7.29166C15.3229 7.29166 17.7083 9.67708 17.7083 12.5C17.7083 15.3229 15.3229 17.7083 12.5 17.7083Z" fill="#FF6347"/>
</svg>
