<svg width="24" height="25" viewBox="0 0 24 25" fill="none" xmlns="http://www.w3.org/2000/svg">
<path d="M10 14.5833H14V21.875H10V14.5833Z" fill="#FF6347"/>
<path d="M20.42 10.6042L12.71 2.39583C12.617 2.2982 12.5064 2.2207 12.3846 2.16782C12.2627 2.11493 12.132 2.08771 12 2.08771C11.868 2.08771 11.7373 2.11493 11.6154 2.16782C11.4936 2.2207 11.383 2.2982 11.29 2.39583L3.58 10.6146C3.39344 10.8105 3.2461 11.043 3.14653 11.2988C3.04696 11.5545 2.99716 11.8282 3 12.1042V20.8333C2.99923 21.3666 3.19477 21.8798 3.54638 22.2674C3.89798 22.655 4.37886 22.8873 4.89 22.9167H8V13.5417C8 13.2654 8.10536 13.0004 8.29289 12.8051C8.48043 12.6097 8.73478 12.5 9 12.5H15C15.2652 12.5 15.5196 12.6097 15.7071 12.8051C15.8946 13.0004 16 13.2654 16 13.5417V22.9167H19.11C19.6211 22.8873 20.102 22.655 20.4536 22.2674C20.8052 21.8798 21.0008 21.3666 21 20.8333V12.1042C21.0008 11.5447 20.7928 11.0069 20.42 10.6042Z" fill="#FF6347"/>
</svg>
