<svg width="25" height="25" viewBox="0 0 25 25" fill="none" xmlns="http://www.w3.org/2000/svg">
<path fill-rule="evenodd" clip-rule="evenodd" d="M1.5625 12.5C1.5625 15.4008 2.71484 18.1828 4.76602 20.234C6.8172 22.2852 9.59919 23.4375 12.5 23.4375C15.4008 23.4375 18.1828 22.2852 20.234 20.234C22.2852 18.1828 23.4375 15.4008 23.4375 12.5C23.4375 9.59919 22.2852 6.8172 20.234 4.76602C18.1828 2.71484 15.4008 1.5625 12.5 1.5625C9.59919 1.5625 6.8172 2.71484 4.76602 4.76602C2.71484 6.8172 1.5625 9.59919 1.5625 12.5V12.5ZM21.5625 12.5C21.5625 14.9035 20.6077 17.2086 18.9082 18.9082C17.2086 20.6077 14.9035 21.5625 12.5 21.5625C10.0965 21.5625 7.79139 20.6077 6.09185 18.9082C4.3923 17.2086 3.4375 14.9035 3.4375 12.5C3.4375 10.0965 4.3923 7.79139 6.09185 6.09185C7.79139 4.3923 10.0965 3.4375 12.5 3.4375C14.9035 3.4375 17.2086 4.3923 18.9082 6.09185C20.6077 7.79139 21.5625 10.0965 21.5625 12.5V12.5Z" fill="#2F2F2F"/>
<path fill-rule="evenodd" clip-rule="evenodd" d="M7.8125 12.5C7.8125 18.1525 9.67625 22.8125 12.5 22.8125C15.3238 22.8125 17.1875 18.1525 17.1875 12.5C17.1875 6.8475 15.3238 2.1875 12.5 2.1875C9.67625 2.1875 7.8125 6.8475 7.8125 12.5ZM15.3125 12.5C15.3125 17.2025 13.8187 20.9375 12.5 20.9375C11.1813 20.9375 9.6875 17.2025 9.6875 12.5C9.6875 7.7975 11.1813 4.0625 12.5 4.0625C13.8187 4.0625 15.3125 7.7975 15.3125 12.5Z" fill="#2F2F2F"/>
<path d="M4.5025 6.83376L5.76 5.44376C5.885 5.55626 6.02125 5.66876 6.16625 5.77751C7.755 6.96751 10.2913 7.70251 13.06 7.70251C15.4237 7.70251 17.625 7.16876 19.2237 6.25501C19.6087 6.03501 19.9512 5.79626 20.2475 5.54251L21.465 6.96876C21.0582 7.31376 20.6196 7.6193 20.155 7.88126C18.26 8.96626 15.7375 9.57626 13.06 9.57626C9.9075 9.57626 6.97875 8.72876 5.04125 7.27751C4.85495 7.13794 4.67517 6.98987 4.5025 6.83376V6.83376ZM4.5025 18.1863L5.76 19.5763C5.885 19.4625 6.02125 19.3513 6.16625 19.2425C7.755 18.0525 10.2913 17.3175 13.06 17.3175C15.4237 17.3175 17.625 17.8513 19.2237 18.765C19.6087 18.985 19.9512 19.2238 20.2475 19.4775L21.465 18.0513C21.0577 17.7069 20.6192 17.4014 20.155 17.1388C18.26 16.0538 15.7375 15.4438 13.06 15.4438C9.9075 15.4438 6.97875 16.2913 5.04125 17.7425C4.85494 17.8821 4.67517 18.0301 4.5025 18.1863V18.1863ZM2.1875 13.4375V11.5625H22.8125V13.4375H2.1875Z" fill="#2F2F2F"/>
</svg>
