<svg width="24" height="24" viewBox="0 0 24 24" fill="none" xmlns="http://www.w3.org/2000/svg">
<path d="M19.6205 5.24261L16.3207 5.28169L16.3076 4.17066C16.3006 3.58133 16.0621 3.01888 15.6446 2.60705C15.2272 2.19522 14.6648 1.96774 14.0814 1.97465L9.68172 2.02676C9.09828 2.03367 8.54152 2.27441 8.1339 2.69601C7.72629 3.11762 7.50121 3.68555 7.50819 4.27488L7.52135 5.38591L4.22158 5.425C3.34643 5.43536 2.51128 5.79647 1.89986 6.42888C1.28843 7.06128 0.950822 7.91319 0.961292 8.79718L1.07973 18.7965C1.0902 19.6805 1.44789 20.5241 2.07412 21.1419C2.70035 21.7596 3.54382 22.1009 4.41897 22.0905L19.8179 21.9081C20.693 21.8977 21.5282 21.5366 22.1396 20.9042C22.751 20.2718 23.0887 19.4199 23.0782 18.5359L22.9597 8.53662C22.9493 7.65263 22.5916 6.80896 21.9654 6.19121C21.3391 5.57347 20.4957 5.23224 19.6205 5.24261ZM9.70804 4.24883L14.1077 4.19671L14.1209 5.30775L9.7212 5.35986L9.70804 4.24883ZM20.8783 18.562C20.8818 18.8566 20.7693 19.1406 20.5655 19.3514C20.3617 19.5622 20.0833 19.6826 19.7916 19.686L4.39266 19.8684C4.10094 19.8719 3.81978 19.7581 3.61104 19.5522C3.40229 19.3463 3.28306 19.0651 3.27957 18.7704L3.20575 12.5375L8.37457 14.2653C8.49155 14.2799 8.60995 14.2785 8.72655 14.2612L15.3261 14.183C15.4453 14.1793 15.5635 14.1593 15.6774 14.1233L20.8045 12.3291L20.8783 18.562ZM20.7767 9.9848L15.1238 11.963L8.87622 12.037L3.17798 10.1932L3.16114 8.77113C3.15765 8.47646 3.27019 8.19249 3.47399 7.98169C3.6778 7.77089 3.95618 7.65052 4.2479 7.64706L19.6468 7.46467C19.9385 7.46122 20.2197 7.57496 20.4284 7.78088C20.6372 7.98679 20.7564 8.26802 20.7599 8.56268L20.7767 9.9848Z" fill="#FF6347"/>
</svg>
