<svg width="23" height="18" viewBox="0 0 23 18" fill="none" xmlns="http://www.w3.org/2000/svg">
<path d="M16.1 5.76562C16.4953 5.76562 16.8188 6.05039 16.8188 6.46875V6.60938H18.975C19.3703 6.60938 19.6938 6.89414 19.6938 7.3125C19.6938 7.69922 19.3703 8.01562 18.975 8.01562H18.9031L18.8456 8.17383C18.5258 9.00352 18.037 9.81211 17.4189 10.473C17.4513 10.4906 17.4836 10.4801 17.5159 10.5293L18.1952 10.9266C18.5366 11.127 18.6444 11.5594 18.4395 11.8934C18.2383 12.2273 17.7962 12.3328 17.4548 12.1324L16.7756 11.7352C16.6175 11.6402 16.427 11.5418 16.3048 11.4363C15.9275 11.7 15.5178 11.9285 15.0866 12.1184L14.9536 12.1746C14.5906 12.3328 14.1666 12.1711 14.0048 11.816C13.8431 11.4609 14.0084 11.0461 14.3714 10.8879L14.5008 10.8316C14.7308 10.7297 14.9536 10.5855 15.1656 10.4871L14.7308 10.0582C14.4469 9.78398 14.4469 9.34102 14.7308 9.0668C15.0111 8.78906 15.4639 8.78906 15.7442 9.0668L16.2689 9.57656L16.2905 9.56602C16.7361 9.13711 17.0991 8.60273 17.3614 7.98398H13.5125C13.0848 7.98398 12.7937 7.69922 12.7937 7.28086C12.7937 6.89414 13.0848 6.57773 13.5125 6.57773H15.3812V6.43711C15.3812 6.05039 15.6723 5.73398 16.1 5.73398V5.76562ZM5.75 8.19844L6.43281 9.70312H5.03484L5.75 8.19844ZM0 4.5C0 3.25723 1.02961 2.25 2.3 2.25H20.7C21.9686 2.25 23 3.25723 23 4.5V13.5C23 14.741 21.9686 15.75 20.7 15.75H2.3C1.02961 15.75 0 14.741 0 13.5V4.5ZM11.5 13.5H20.7V4.5H11.5V13.5ZM6.40766 6.18398C6.29266 5.93086 6.03391 5.76562 5.75 5.76562C5.46609 5.76562 5.20734 5.93086 5.09234 6.18398L2.79306 11.2465C2.63206 11.5699 2.79522 12.0164 3.15819 12.1746C3.5208 12.3328 3.94594 12.1711 4.10766 11.816L4.4275 11.0777H7.0725L7.39234 11.816C7.55406 12.1711 7.97813 12.3328 8.34109 12.1746C8.70406 12.0164 8.86938 11.5699 8.70766 11.2465L6.40766 6.18398Z" fill="#FF6347"/>
</svg>
