<svg width="24" height="24" viewBox="0 0 24 24" fill="none" xmlns="http://www.w3.org/2000/svg">
<path d="M19.93 8.20999L16.33 9.88999L14 7.69999V6.29999L16.33 4.10999L19.93 5.78999C20.31 5.96999 20.75 5.79999 20.93 5.42999C21.11 5.04999 20.94 4.60999 20.57 4.42999L16.65 2.59999C16.4641 2.51228 16.2556 2.48441 16.0532 2.52023C15.8508 2.55606 15.6645 2.6538 15.52 2.79999L13.78 4.39999C13.6902 4.27706 13.5729 4.17685 13.4375 4.10739C13.302 4.03793 13.1522 4.00115 13 3.99999C12.45 3.99999 12 4.44999 12 4.99999V5.99999H8.82C8.34 4.64999 6.98 3.72999 5.4 4.06999C4.24 4.31999 3.25 5.31999 3.04 6.49999C2.82 7.81999 3.5 8.96999 4.52 9.57999L7.08 18H4V21H17V18H13.38L8.41 8.76999C8.58 8.52999 8.72 8.27999 8.82 7.99999H12V8.99999C12 9.54999 12.45 9.99999 13 9.99999C13.32 9.99999 13.6 9.83999 13.78 9.59999L15.52 11.2C15.82 11.5 16.27 11.58 16.65 11.4L20.57 9.56999C20.95 9.38999 21.11 8.94999 20.93 8.56999C20.8448 8.38992 20.6918 8.25093 20.5044 8.18346C20.3169 8.11598 20.1104 8.12553 19.93 8.20999V8.20999ZM6 7.99999C5.45 7.99999 5 7.54999 5 6.99999C5 6.44999 5.45 5.99999 6 5.99999C6.55 5.99999 7 6.44999 7 6.99999C7 7.54999 6.55 7.99999 6 7.99999Z" fill="#FF6347"/>
</svg>
