<svg width="25" height="25" viewBox="0 0 25 25" fill="none" xmlns="http://www.w3.org/2000/svg">
<g clip-path="url(#clip0_11_112)">
<path d="M22.2656 3.28125C21.997 3.10747 21.6898 3.00234 21.3711 2.9751C21.0523 2.94785 20.7317 2.99933 20.4375 3.125L10.7969 6.92188C10.5686 7.01477 10.3245 7.06253 10.0781 7.0625H3.90625C3.38825 7.0625 2.89146 7.26828 2.52518 7.63456C2.1589 8.00084 1.95312 8.49763 1.95312 9.01563V9.17188H0V13.8594H1.95312V14.0625C1.96536 14.5723 2.17653 15.0572 2.54149 15.4134C2.90646 15.7696 3.39627 15.9689 3.90625 15.9688L6.25 20.9375C6.4087 21.2721 6.65856 21.5552 6.97088 21.7542C7.2832 21.9531 7.64531 22.06 8.01562 22.0625H9C9.51529 22.0584 10.0081 21.8508 10.371 21.485C10.7339 21.1191 10.9375 20.6247 10.9375 20.1094V16.1563L20.4375 19.9531C20.6712 20.0461 20.9204 20.0938 21.1719 20.0938C21.562 20.0875 21.942 19.968 22.2656 19.75C22.5226 19.5765 22.7346 19.3443 22.884 19.0726C23.0335 18.8008 23.1161 18.4975 23.125 18.1875V4.89063C23.1236 4.57268 23.0445 4.2599 22.8948 3.97943C22.745 3.69896 22.529 3.4593 22.2656 3.28125ZM8.98438 9.01563V14.0625H3.90625V9.01563H8.98438ZM8.98438 20.1094H8L6.07812 15.9688H8.98438V20.1094ZM11.5156 14.2969C11.3301 14.2021 11.1367 14.1236 10.9375 14.0625V8.90625C11.1348 8.86555 11.3282 8.80805 11.5156 8.73438L21.1719 4.89063V18.1406L11.5156 14.2969ZM23.1719 9.5625V13.4688C23.6899 13.4688 24.1867 13.263 24.5529 12.8967C24.9192 12.5304 25.125 12.0336 25.125 11.5156C25.125 10.9976 24.9192 10.5008 24.5529 10.1346C24.1867 9.76828 23.6899 9.5625 23.1719 9.5625Z" fill="#FF6347"/>
</g>
<defs>
<clipPath id="clip0_11_112">
<rect width="25" height="25" fill="white"/>
</clipPath>
</defs>
</svg>
