<svg width="25" height="25" viewBox="0 0 25 25" fill="none" xmlns="http://www.w3.org/2000/svg">
<path d="M12.5 8.33334C13.6506 8.33334 14.5833 7.4006 14.5833 6.25001C14.5833 5.09941 13.6506 4.16667 12.5 4.16667C11.3494 4.16667 10.4167 5.09941 10.4167 6.25001C10.4167 7.4006 11.3494 8.33334 12.5 8.33334Z" fill="#FF6347"/>
<path d="M21.875 16.6667V14.5833C19.5417 14.5833 17.5417 13.5833 16.0417 11.7917L14.6458 10.125C14.452 9.89008 14.2086 9.70099 13.933 9.57131C13.6575 9.44164 13.3566 9.37459 13.0521 9.375H11.9583C11.3437 9.375 10.7604 9.64584 10.3646 10.125L8.96875 11.7917C7.45833 13.5833 5.45833 14.5833 3.125 14.5833V16.6667C6.01042 16.6667 8.53125 15.4479 10.4167 13.2813V15.625L6.375 17.2396C5.67708 17.5208 5.20833 18.2083 5.20833 18.9688C5.20833 20 6.04167 20.8333 7.07292 20.8333H9.375V20.3125C9.375 19.6218 9.64937 18.9595 10.1377 18.4711C10.6261 17.9827 11.2885 17.7083 11.9792 17.7083H15.1042C15.3958 17.7083 15.625 17.9375 15.625 18.2292C15.625 18.5208 15.3958 18.75 15.1042 18.75H11.9792C11.1146 18.75 10.4167 19.4479 10.4167 20.3125V20.8333H17.9271C18.9583 20.8333 19.7917 20 19.7917 18.9688C19.7917 18.2083 19.3229 17.5208 18.625 17.2396L14.5833 15.625V13.2813C16.4687 15.4479 18.9896 16.6667 21.875 16.6667Z" fill="#FF6347"/>
</svg>
