<svg width="32" height="32" viewBox="0 0 32 32" fill="none" xmlns="http://www.w3.org/2000/svg">
<path d="M27.71 4.29001C27.575 4.15569 27.4045 4.06268 27.2185 4.02194C27.0325 3.9812 26.8388 3.99441 26.66 4.06001L4.66 12.06C4.47027 12.132 4.30692 12.26 4.19165 12.427C4.07638 12.594 4.01465 12.7921 4.01465 12.995C4.01465 13.1979 4.07638 13.3961 4.19165 13.5631C4.30692 13.7301 4.47027 13.858 4.66 13.93L14.26 17.77L18.1 27.37C18.1721 27.5514 18.2958 27.7077 18.4557 27.8197C18.6157 27.9316 18.8049 27.9943 19 28C19.2021 27.9959 19.3982 27.9306 19.5624 27.8128C19.7266 27.6949 19.8513 27.5301 19.92 27.34L27.92 5.34001C27.9881 5.16309 28.0046 4.97044 27.9674 4.78454C27.9302 4.59863 27.8409 4.42712 27.71 4.29001V4.29001ZM19 24.2L16.21 17.2L21 12.41L19.59 11L14.76 15.83L7.8 13L25.33 6.67001L19 24.2Z" fill="#FF6347"/>
</svg>
