<svg width="25" height="25" viewBox="0 0 25 25" fill="none" xmlns="http://www.w3.org/2000/svg">
<path d="M10.4167 4.16666C10.4167 3.61413 10.6362 3.08422 11.0269 2.69352C11.4176 2.30282 11.9475 2.08333 12.5 2.08333C13.0525 2.08333 13.5824 2.30282 13.9731 2.69352C14.3638 3.08422 14.5833 3.61413 14.5833 4.16666V5.45833C16.4445 5.92151 18.0969 6.99467 19.2769 8.5066C20.4569 10.0185 21.0965 11.8821 21.0938 13.8C21.0938 14.0072 21.0114 14.2059 20.8649 14.3524C20.7184 14.4989 20.5197 14.5812 20.3125 14.5812H4.6875C4.4803 14.5812 4.28159 14.4989 4.13508 14.3524C3.98856 14.2059 3.90625 14.0072 3.90625 13.8C3.90625 9.77916 6.68542 6.40625 10.4167 5.4677V4.16666ZM13.8021 7.8125C13.5949 7.8125 13.3962 7.89481 13.2497 8.04132C13.1031 8.18783 13.0208 8.38655 13.0208 8.59375C13.0208 8.80095 13.1031 8.99966 13.2497 9.14617C13.3962 9.29269 13.5949 9.375 13.8021 9.375C15.1073 9.375 16.0344 10.0187 16.8083 11.125C16.8672 11.2091 16.942 11.2807 17.0285 11.3359C17.115 11.391 17.2115 11.4286 17.3125 11.4464C17.4136 11.4643 17.5171 11.462 17.6173 11.4399C17.7175 11.4177 17.8123 11.376 17.8964 11.3172C17.9804 11.2584 18.0521 11.1836 18.1072 11.097C18.1624 11.0105 18.1999 10.914 18.2178 10.813C18.2356 10.7119 18.2334 10.6084 18.2112 10.5082C18.1891 10.408 18.1474 10.3132 18.0885 10.2292C17.1198 8.84375 15.7667 7.8125 13.8021 7.8125ZM2.08334 17.7083C2.08334 17.1558 2.30283 16.6259 2.69353 16.2352C3.08423 15.8445 3.61413 15.625 4.16667 15.625H20.8333C21.3859 15.625 21.9158 15.8445 22.3065 16.2352C22.6972 16.6259 22.9167 17.1558 22.9167 17.7083C22.9167 18.2609 22.6972 18.7908 22.3065 19.1815C21.9158 19.5722 21.3859 19.7917 20.8333 19.7917H4.16667C3.61413 19.7917 3.08423 19.5722 2.69353 19.1815C2.30283 18.7908 2.08334 18.2609 2.08334 17.7083Z" fill="#FF6347"/>
</svg>
