<svg width="25" height="25" viewBox="0 0 25 25" fill="none" xmlns="http://www.w3.org/2000/svg">
<path d="M12.4828 1.41666C7.8469 1.41666 6.49108 1.42144 6.22754 1.4433C5.27618 1.52238 4.68418 1.67218 4.03923 1.99328C3.5422 2.24009 3.15021 2.52618 2.76335 2.92722C2.05879 3.65859 1.63179 4.55837 1.47722 5.62793C1.40206 6.14717 1.3802 6.25306 1.37576 8.90527C1.37405 9.78933 1.37576 10.9528 1.37576 12.5134C1.37576 17.1456 1.38088 18.5 1.40309 18.7631C1.47995 19.6888 1.62513 20.2712 1.93257 20.9083C2.52013 22.1278 3.64229 23.0433 4.96429 23.3849C5.42204 23.5028 5.92761 23.5677 6.57666 23.5984C6.85165 23.6104 9.65449 23.6189 12.459 23.6189C15.2636 23.6189 18.0682 23.6155 18.3363 23.6019C19.0878 23.5665 19.5242 23.5079 20.0068 23.3832C20.6623 23.2151 21.2732 22.906 21.7968 22.4773C22.3204 22.0487 22.7442 21.5109 23.0385 20.9015C23.3399 20.2798 23.4928 19.6751 23.562 18.7977C23.577 18.6064 23.5833 15.5564 23.5833 12.5105C23.5833 9.46413 23.5765 6.41977 23.5615 6.22847C23.4914 5.33689 23.3386 4.73737 23.0274 4.1037C22.772 3.58498 22.4885 3.1976 22.0769 2.80151C21.3424 2.09986 20.444 1.67286 19.3733 1.51845C18.8545 1.44347 18.7512 1.42127 16.0969 1.41666H12.4828Z" fill="url(#paint0_radial_226_2)"/>
<path d="M12.4828 1.41666C7.8469 1.41666 6.49108 1.42144 6.22754 1.4433C5.27618 1.52238 4.68418 1.67218 4.03923 1.99328C3.5422 2.24009 3.15021 2.52618 2.76335 2.92722C2.05879 3.65859 1.63179 4.55837 1.47722 5.62793C1.40206 6.14717 1.3802 6.25306 1.37576 8.90527C1.37405 9.78933 1.37576 10.9528 1.37576 12.5134C1.37576 17.1456 1.38088 18.5 1.40309 18.7631C1.47995 19.6888 1.62513 20.2712 1.93257 20.9083C2.52013 22.1278 3.64229 23.0433 4.96429 23.3849C5.42204 23.5028 5.92761 23.5677 6.57666 23.5984C6.85165 23.6104 9.65449 23.6189 12.459 23.6189C15.2636 23.6189 18.0682 23.6155 18.3363 23.6019C19.0878 23.5665 19.5242 23.5079 20.0068 23.3832C20.6623 23.2151 21.2732 22.906 21.7968 22.4773C22.3204 22.0487 22.7442 21.5109 23.0385 20.9015C23.3399 20.2798 23.4928 19.6751 23.562 18.7977C23.577 18.6064 23.5833 15.5564 23.5833 12.5105C23.5833 9.46413 23.5765 6.41977 23.5615 6.22847C23.4914 5.33689 23.3386 4.73737 23.0274 4.1037C22.772 3.58498 22.4885 3.1976 22.0769 2.80151C21.3424 2.09986 20.444 1.67286 19.3733 1.51845C18.8545 1.44347 18.7512 1.42127 16.0969 1.41666H12.4828Z" fill="url(#paint1_radial_226_2)"/>
<path d="M12.4902 4.32291C10.261 4.32291 9.9812 4.33265 9.10564 4.3725C8.23178 4.41252 7.63531 4.55086 7.11339 4.75385C6.57351 4.96351 6.11555 5.24396 5.6593 5.70038C5.20271 6.15663 4.92225 6.61459 4.71191 7.1543C4.50841 7.67639 4.36989 8.27304 4.33056 9.14655C4.29157 10.0221 4.28131 10.3021 4.28131 12.5313C4.28131 14.7606 4.29123 15.0395 4.3309 15.9151C4.37109 16.7889 4.50944 17.3854 4.71225 17.9073C4.92208 18.4472 5.20253 18.9052 5.65896 19.3614C6.11504 19.818 6.573 20.0991 7.11253 20.3088C7.63479 20.5118 8.23144 20.6501 9.10513 20.6902C9.98069 20.73 10.2603 20.7397 12.4894 20.7397C14.7188 20.7397 14.9977 20.73 15.8733 20.6902C16.7472 20.6501 17.3443 20.5118 17.8666 20.3088C18.4063 20.0991 18.8636 19.818 19.3196 19.3614C19.7762 18.9052 20.0567 18.4472 20.267 17.9075C20.4688 17.3854 20.6073 16.7888 20.6484 15.9152C20.6877 15.0397 20.698 14.7606 20.698 12.5313C20.698 10.3021 20.6877 10.0223 20.6484 9.14672C20.6073 8.27287 20.4688 7.67639 20.267 7.15447C20.0567 6.61459 19.7762 6.15663 19.3196 5.70038C18.8631 5.24379 18.4065 4.96333 17.8661 4.75385C17.3428 4.55086 16.746 4.41252 15.8721 4.3725C14.9965 4.33265 14.7178 4.32291 12.4878 4.32291H12.4902ZM11.7539 5.80213C11.9724 5.80179 12.2163 5.80213 12.4902 5.80213C14.6819 5.80213 14.9417 5.81 15.8071 5.84933C16.6074 5.88593 17.0418 6.01966 17.3312 6.13201C17.7142 6.28079 17.9873 6.45863 18.2744 6.74593C18.5617 7.03322 18.7396 7.30684 18.8887 7.6899C19.0011 7.9789 19.135 8.41326 19.1714 9.21358C19.2107 10.0789 19.2193 10.3388 19.2193 12.5294C19.2193 14.7201 19.2107 14.98 19.1714 15.8453C19.1348 16.6456 19.0011 17.08 18.8887 17.369C18.7399 17.7521 18.5617 18.0248 18.2744 18.3119C17.9871 18.5992 17.7144 18.7771 17.3312 18.9259C17.0422 19.0387 16.6074 19.1721 15.8071 19.2087C14.9418 19.248 14.6819 19.2566 12.4902 19.2566C10.2984 19.2566 10.0387 19.248 9.17336 19.2087C8.37304 19.1718 7.93867 19.038 7.64916 18.9257C7.2661 18.7769 6.99248 18.5991 6.70519 18.3118C6.41789 18.0245 6.24005 17.7515 6.09093 17.3683C5.97857 17.0793 5.84467 16.6449 5.80825 15.8446C5.76892 14.9793 5.76105 14.7194 5.76105 12.5274C5.76105 10.3354 5.76892 10.0768 5.80825 9.21153C5.84484 8.41121 5.97857 7.97685 6.09093 7.6875C6.2397 7.30444 6.41789 7.03083 6.70519 6.74354C6.99248 6.45624 7.2661 6.27839 7.64916 6.12927C7.9385 6.01641 8.37304 5.88302 9.17336 5.84625C9.93058 5.81205 10.224 5.80179 11.7539 5.80008V5.80213ZM16.8718 7.16507C16.677 7.16507 16.4865 7.22285 16.3245 7.3311C16.1626 7.43935 16.0363 7.59321 15.9618 7.77321C15.8872 7.95322 15.8677 8.15129 15.9058 8.34237C15.9438 8.53346 16.0377 8.70897 16.1754 8.84671C16.3132 8.98445 16.4888 9.07824 16.6799 9.11621C16.871 9.15418 17.069 9.13462 17.249 9.06001C17.429 8.98541 17.5828 8.8591 17.691 8.69708C17.7992 8.53505 17.8569 8.34457 17.8568 8.14974C17.8568 7.60593 17.4156 7.16473 16.8718 7.16473V7.16507ZM12.4902 8.31596C10.1623 8.31596 8.27488 10.2034 8.27488 12.5313C8.27488 14.8593 10.1623 16.7458 12.4902 16.7458C14.8182 16.7458 16.7051 14.8593 16.7051 12.5313C16.7051 10.2034 14.818 8.31596 12.4901 8.31596H12.4902ZM12.4902 9.79519C14.0013 9.79519 15.2264 11.0201 15.2264 12.5313C15.2264 14.0424 14.0013 15.2675 12.4902 15.2675C10.979 15.2675 9.7541 14.0424 9.7541 12.5313C9.7541 11.0201 10.979 9.79519 12.4902 9.79519V9.79519Z" fill="white"/>
<defs>
<radialGradient id="paint0_radial_226_2" cx="0" cy="0" r="1" gradientUnits="userSpaceOnUse" gradientTransform="translate(7.27412 25.329) rotate(-90) scale(22.0041 20.4711)">
<stop stop-color="#FFDD55"/>
<stop offset="0.1" stop-color="#FFDD55"/>
<stop offset="0.5" stop-color="#FF543E"/>
<stop offset="1" stop-color="#C837AB"/>
</radialGradient>
<radialGradient id="paint1_radial_226_2" cx="0" cy="0" r="1" gradientUnits="userSpaceOnUse" gradientTransform="translate(-2.34501 3.01607) rotate(78.6776) scale(9.83603 40.5547)">
<stop stop-color="#3771C8"/>
<stop offset="0.128" stop-color="#3771C8"/>
<stop offset="1" stop-color="#6600FF" stop-opacity="0"/>
</radialGradient>
</defs>
</svg>
