<svg width="25" height="25" viewBox="0 0 25 25" fill="none" xmlns="http://www.w3.org/2000/svg">
<path d="M12.5 0C5.59639 0 0 5.59639 0 12.5C0 19.4036 5.59639 25 12.5 25C19.4036 25 25 19.4036 25 12.5C25 5.59639 19.4036 0 12.5 0Z" fill="#40B3E0"/>
<path d="M18.5824 7.19044L16.3496 18.4472C16.3496 18.4472 16.0374 19.2278 15.1787 18.8531L10.0266 14.9031L8.15315 13.9977L4.99944 12.936C4.99944 12.936 4.51546 12.7643 4.46858 12.3896C4.42171 12.0149 5.01506 11.8119 5.01506 11.8119L17.5518 6.89396C17.5518 6.89396 18.5823 6.44122 18.5823 7.19064" fill="white"/>
<path d="M9.63068 18.3206C9.63068 18.3206 9.48029 18.3065 9.29279 17.7132C9.10558 17.1199 8.15314 13.9975 8.15314 13.9975L15.7252 9.18886C15.7252 9.18886 16.1624 8.92343 16.1468 9.18886C16.1468 9.18886 16.2248 9.23574 15.9905 9.45429C15.7565 9.67294 10.0423 14.8094 10.0423 14.8094" fill="#D2E5F1"/>
<path d="M12.0021 16.4175L9.96427 18.2755C9.96427 18.2755 9.8049 18.3964 9.63068 18.3206L10.0209 14.8694" fill="#B5CFE4"/>
</svg>
