<svg width="25" height="25" viewBox="0 0 25 25" fill="none" xmlns="http://www.w3.org/2000/svg">
<path d="M12.5 1C6.14832 1 1 6.14985 1 12.5006C1 18.8517 6.14832 24 12.5 24C18.8517 24 24 18.8517 24 12.5006C24 6.14985 18.8517 1 12.5 1ZM4.18841 14.0238H5.95236C6.24749 16.2461 7.18863 18.3328 8.659 20.025C6.35869 18.8462 4.66773 16.6449 4.18841 14.0238V14.0238ZM5.95236 10.9759H4.18841C4.66804 8.35509 6.359 6.15384 8.65931 4.97501C7.18891 6.66712 6.24767 8.75369 5.95236 10.9759V10.9759ZM10.9759 18.0381C9.98189 16.8982 9.31316 15.5117 9.03988 14.0241H10.9759V18.0381ZM10.9759 10.9759H9.03988C9.3133 9.48848 9.98202 8.1021 10.9759 6.96221V10.9759ZM20.8113 10.9759H19.0476C18.7525 8.75386 17.8115 6.66739 16.3413 4.97532C18.641 6.15445 20.332 8.35571 20.8113 10.9759ZM14.0241 18.0375V14.0238H15.9601C15.6865 15.5112 15.0178 16.8975 14.0241 18.0375V18.0375ZM14.0241 10.9759V6.96191C15.0181 8.10183 15.6868 9.48834 15.9601 10.9759H14.0241ZM16.3404 20.0253C17.811 18.3331 18.7524 16.2463 19.0476 14.0238H20.8116C20.3323 16.6452 18.641 18.8465 16.3404 20.0253Z" fill="#2F2F2F"/>
</svg>
